<?xml version="1.0" encoding="UTF-8"?>
<svg enable-background="new 0 0 260.366 260.366" version="1.1" viewBox="0 0 260.37 260.37" xml:space="preserve" xmlns="http://www.w3.org/2000/svg">

	<path d="m34.703 0.183c-19.121 0-34.689 15.565-34.703 34.701 0 19.136 15.568 34.704 34.703 34.704 19.128 0 34.688-15.568 34.688-34.704 0-19.134-15.561-34.701-34.688-34.701z"/>
	<path d="m60.748 83.531h-52.094c-2.478 0-4.488 2.009-4.488 4.489v167.68c0 2.479 2.01 4.488 4.488 4.488h52.093c2.479 0 4.489-2.01 4.489-4.488v-167.68c1e-3 -2.481-2.009-4.489-4.488-4.489z"/>
	<path d="m193.92 81.557c-19.064 0-35.817 5.805-46.04 15.271v-8.808c0-2.48-2.01-4.489-4.489-4.489h-49.971c-2.479 0-4.489 2.009-4.489 4.489v167.68c0 2.479 2.01 4.488 4.489 4.488h52.044c2.479 0 4.489-2.01 4.489-4.488v-82.957c0-23.802 4.378-38.555 26.227-38.555 21.526 0.026 23.137 15.846 23.137 39.977v81.535c0 2.479 2.01 4.488 4.49 4.488h52.068c2.478 0 4.488-2.01 4.488-4.488v-91.977c-1e-3 -38.253-7.553-82.161-66.443-82.161z"/>

</svg>
